<?xml version="1.0" standalone="no"?>
<!DOCTYPE svg PUBLIC "-//W3C//DTD SVG 20010904//EN"
 "http://www.w3.org/TR/2001/REC-SVG-20010904/DTD/svg10.dtd">
<svg version="1.0" xmlns="http://www.w3.org/2000/svg"
 width="1500.000000pt" height="1500.000000pt" viewBox="0 0 1500.000000 1500.000000"
 preserveAspectRatio="xMidYMid meet">
<metadata>
Created by potrace 1.11, written by Peter Selinger 2001-2013
</metadata>
<g transform="translate(0.000000,1500.000000) scale(0.100000,-0.100000)"
fill="#000000" stroke="none">
<path d="M1925 11130 c-88 -11 -133 -25 -200 -65 -70 -42 -105 -79 -144 -155
-60 -117 -56 137 -56 -3570 0 -3267 1 -3408 18 -3469 10 -36 27 -81 37 -101
46 -91 164 -174 280 -200 42 -9 343 -11 1250 -8 1147 4 1204 5 1415 27 916 92
1592 338 2118 770 643 528 1021 1315 1143 2381 27 233 28 266 28 695 0 428 -2
461 -27 665 -154 1233 -706 2098 -1652 2586 -542 280 -1154 414 -2019 444
-342 11 -2096 11 -2191 0z m2055 -1210 c281 -12 453 -32 645 -75 256 -58 477
-149 670 -278 481 -321 767 -805 885 -1495 70 -413 68 -984 -5 -1432 -163
-1004 -699 -1612 -1580 -1796 -256 -54 -410 -64 -997 -64 l-538 0 0 2575 0
2575 348 0 c191 0 448 -5 572 -10z"/>
<path d="M8867 11130 c-105 -18 -159 -86 -194 -245 -26 -115 -26 -614 -1 -724
28 -121 78 -198 147 -227 28 -12 260 -14 1523 -14 1188 0 1489 -3 1485 -12 -2
-7 -647 -1030 -1433 -2273 -785 -1243 -1484 -2352 -1552 -2465 -218 -357 -264
-481 -283 -760 -12 -175 -5 -413 15 -500 40 -172 139 -282 297 -331 59 -18
136 -19 2378 -19 l2318 0 34 23 c52 35 86 93 110 192 19 77 23 126 27 336 4
254 -4 370 -35 484 -22 79 -65 149 -111 177 l-37 23 -1602 5 -1602 5 1455
2310 c800 1271 1493 2373 1539 2450 131 219 184 350 210 525 20 129 21 663 1
735 -31 118 -106 216 -196 257 -124 56 45 52 -2295 54 -1182 1 -2172 -2 -2198
-6z"/>
</g>
</svg>
