<?xml version="1.0" encoding="UTF-8" standalone="no"?>
<!-- Created with Inkscape (http://www.inkscape.org/) -->

<svg
   xmlns:dc="http://purl.org/dc/elements/1.1/"
   xmlns:cc="http://creativecommons.org/ns#"
   xmlns:rdf="http://www.w3.org/1999/02/22-rdf-syntax-ns#"
   xmlns:svg="http://www.w3.org/2000/svg"
   xmlns="http://www.w3.org/2000/svg"
   xmlns:xlink="http://www.w3.org/1999/xlink"
   version="1.1"
   width="208"
   height="319"
   id="svg6102">
  <defs
     id="defs6104">
    <linearGradient
       x1="135.06662"
       y1="-723.17877"
       x2="-384.7966"
       y2="-723.17877"
       id="linearGradient4973"
       xlink:href="#linearGradient3293"
       gradientUnits="userSpaceOnUse" />
    <linearGradient
       id="linearGradient3293">
      <stop
         id="stop3295"
         style="stop-color:#ffffff;stop-opacity:1"
         offset="0" />
      <stop
         id="stop3297"
         style="stop-color:#cccccc;stop-opacity:1"
         offset="1" />
    </linearGradient>
    <linearGradient
       x1="135.06662"
       y1="-723.17877"
       x2="-384.7966"
       y2="-723.17877"
       id="linearGradient6501"
       xlink:href="#linearGradient3293"
       gradientUnits="userSpaceOnUse"
       gradientTransform="translate(4.1355932,1502.2712)" />
    <linearGradient
       x1="135.06662"
       y1="-723.17877"
       x2="-384.7966"
       y2="-723.17877"
       id="linearGradient6520"
       xlink:href="#linearGradient3293"
       gradientUnits="userSpaceOnUse"
       gradientTransform="translate(-2.1430664e-7,1605)" />
    <clipPath
       id="clipPath17381">
      <rect
         width="164.40321"
         height="277.0032"
         rx="4.0097499"
         ry="5.9999948"
         x="21.798393"
         y="20.912563"
         id="rect17383"
         style="fill:none;stroke:#8ae234;stroke-width:0.19678587;stroke-miterlimit:4;stroke-opacity:1;stroke-dasharray:none;display:inline" />
    </clipPath>
    <linearGradient
       x1="135.06662"
       y1="-723.17877"
       x2="-384.7966"
       y2="-723.17877"
       id="linearGradient6950"
       xlink:href="#linearGradient3293"
       gradientUnits="userSpaceOnUse"
       gradientTransform="translate(-2.1430664e-7,1605)" />
  </defs>
  <metadata
     id="metadata6107">
    <rdf:RDF>
      <cc:Work
         rdf:about="">
        <dc:format>image/svg+xml</dc:format>
        <dc:type
           rdf:resource="http://purl.org/dc/dcmitype/StillImage" />
        <dc:title></dc:title>
      </cc:Work>
    </rdf:RDF>
  </metadata>
  <g
     transform="translate(0,-733.36218)"
     id="layer1">
    <g
       id="g6846">
      <rect
         width="207"
         height="318"
         rx="15"
         ry="15"
         x="0.5"
         y="733.86218"
         id="card_body"
         style="fill:url(#linearGradient6950);fill-opacity:1;stroke:#000000;stroke-width:1;stroke-linecap:square;stroke-linejoin:miter;stroke-miterlimit:4;stroke-opacity:1;stroke-dasharray:none" />
      <g
         transform="translate(0,733.36218)"
         id="g3088">
        <g
           id="layer2"
           style="fill:#28284e;fill-opacity:1;display:inline">
          <rect
             width="179"
             height="290"
             rx="10.529411"
             ry="12.608695"
             x="14.5"
             y="14.5"
             id="rect2989"
             style="fill:#28284e;fill-opacity:1;stroke:none;display:inline" />
          <rect
             width="168"
             height="280"
             rx="8"
             ry="8"
             x="20"
             y="19.5"
             id="rect2989-7"
             style="fill:#28284e;fill-opacity:1;stroke:#ffffff;stroke-width:2;stroke-miterlimit:4;stroke-opacity:1;stroke-dasharray:none;display:inline" />
        </g>
        <g
           id="layer3"
           style="display:inline">
          <g
             transform="translate(0,0.085835)"
             clip-path="url(#clipPath17381)"
             id="g17275">
            <g
               transform="translate(-0.814505,0)"
               id="g17178">
              <g
                 id="g17083">
                <g
                   transform="matrix(1.0000054,0,0,1.0000054,-5.5960728e-4,-131.54091)"
                   id="g16963"
                   style="display:inline">
                  <g
                     transform="matrix(-0.04785845,-3.7995445e-5,3.6262306e-5,-0.05015671,123.07002,158.98276)"
                     id="g14999"
                     style="fill:#ffffff;fill-opacity:1;stroke:none">
                    <g
                       transform="matrix(0.4332138,0.2496512,-0.2496512,0.4332138,70.483536,-36.631848)"
                       id="g15001"
                       style="fill:#ffffff;fill-opacity:1;stroke:none">
                      <path
                         d="m 6.9527589,181.37067 c -0.37341,-2.0752 -1.856084,-11.39331 -3.039615,-14.59041 -3.02466684,-4.6548 2.045655,-10.25693 6.3435171,-7.92274 6.442562,3.00274 18.522619,10.10051 23.479391,11.36725 5.784438,2.62935 26.97037,7.39239 28.513311,7.58399 1.914378,0.4326 17.411819,2.2558 18.05328,2.1982 4.727035,0.4969 14.84196,1.0651 22.367747,0.9977 25.03369,0 50.06737,0 75.10106,0 0,-33.94193 0,-67.88384 0,-101.825755 -0.87882,-6.459601 -3.02378,-14.03928 -4.90172,-19.61473 -2.01532,-6.4068 -3.7558,-12.8611 -5.65796,-19.29326 -2.25326,-6.73243 -6.67713,-17.34641 -8.16098,-19.57791 -2.50607,-5.40818 -11.08229,-11.52555 -4.44113,-17.0682702 3.11197,-3.09454 23.36746,2.35574 25.1316,2.43562 7.10517,1.0807205 12.85976,0.9873205 20.22088,1.2145505 0.9374,0.03568 9.39219,0.03429 13.03428,0.01606 -0.0199,7.1746697 -0.008,145.8077347 -0.008,205.3838947 -68.33504,0 -136.670074,0 -205.0051151,0 0,-1.2361 -1.030396,-30.06819 -1.030396,-31.30419 z"
                         id="path15003"
                         style="fill:#ffffff;fill-opacity:1;stroke:none" />
                      <path
                         d="m 6.9527589,243.97905 c -0.37341,2.0752 -1.856084,11.39331 -3.039615,14.59041 -3.02466684,4.6548 2.045655,10.25693 6.3435171,7.92274 6.442562,-3.00274 18.522619,-10.10051 23.479391,-11.36725 5.784438,-2.62935 26.97037,-7.39239 28.513311,-7.58399 1.914378,-0.4326 17.411819,-2.2558 18.05328,-2.1982 4.727035,-0.4969 14.84196,-1.0651 22.367747,-0.9977 25.03369,0 50.06737,0 75.10106,0 0,33.94193 0,67.88384 0,101.82576 -0.87882,6.4596 -3.02378,14.03928 -4.90172,19.61473 -2.01532,6.40679 -3.7558,12.86109 -5.65796,19.29325 -2.25326,6.73244 -6.67713,17.34641 -8.16098,19.57791 -2.50607,5.40818 -11.08229,11.52555 -4.44113,17.06828 3.11197,3.09454 23.36746,-2.35574 25.1316,-2.43562 7.10517,-1.08073 12.85976,-0.98733 20.22088,-1.21456 0.9374,-0.0357 9.39219,-0.0343 13.03428,-0.0161 -0.0199,-7.17467 -0.008,-145.80773 -0.008,-205.38389 -68.33504,0 -136.670074,0 -205.0051151,0 0,1.2361 -1.030396,30.06819 -1.030396,31.30419 z"
                         id="path15005"
                         style="fill:#ffffff;fill-opacity:1;stroke:none" />
                      <path
                         d="m 419.04008,181.37067 c 0.37341,-2.0752 1.85609,-11.39331 3.03962,-14.59041 3.02466,-4.6548 -2.04566,-10.25693 -6.34352,-7.92274 -6.44256,3.00274 -18.52262,10.10051 -23.47939,11.36725 -5.78444,2.62935 -26.97037,7.39239 -28.51331,7.58399 -1.91438,0.4326 -17.41182,2.2558 -18.05328,2.1982 -4.72704,0.4969 -14.84196,1.0651 -22.36775,0.9977 -25.03369,0 -50.06737,0 -75.10106,0 0,-33.94193 0,-67.88384 0,-101.825755 0.87882,-6.459601 3.02378,-14.03928 4.90172,-19.61473 2.01532,-6.4068 3.7558,-12.8611 5.65796,-19.29326 2.25326,-6.73243 6.67713,-17.34641 8.16098,-19.57791 2.50607,-5.40818 11.08229,-11.52555 4.44113,-17.0682702 -3.11197,-3.09454 -23.36746,2.35574 -25.1316,2.43562 -7.10517,1.0807205 -12.85976,0.9873205 -20.22088,1.2145505 -0.9374,0.03568 -9.39219,0.03429 -13.03428,0.01606 0.0199,7.1746697 0.008,145.8077347 0.008,205.3838947 68.33504,0 136.67007,0 205.00512,0 0,-1.2361 1.03039,-30.06819 1.03039,-31.30419 z"
                         id="path15007"
                         style="fill:#ffffff;fill-opacity:1;stroke:none" />
                      <path
                         d="m 419.04008,243.97905 c 0.37341,2.0752 1.85609,11.39331 3.03962,14.59041 3.02466,4.6548 -2.04566,10.25693 -6.34352,7.92274 -6.44256,-3.00274 -18.52262,-10.10051 -23.47939,-11.36725 -5.78444,-2.62935 -26.97037,-7.39239 -28.51331,-7.58399 -1.91438,-0.4326 -17.41182,-2.2558 -18.05328,-2.1982 -4.72704,-0.4969 -14.84196,-1.0651 -22.36775,-0.9977 -25.03369,0 -50.06737,0 -75.10106,0 0,33.94193 0,67.88384 0,101.82576 0.87882,6.4596 3.02378,14.03928 4.90172,19.61473 2.01532,6.40679 3.7558,12.86109 5.65796,19.29325 2.25326,6.73244 6.67713,17.34641 8.16098,19.57791 2.50607,5.40818 11.08229,11.52555 4.44113,17.06828 -3.11197,3.09454 -23.36746,-2.35574 -25.1316,-2.43562 -7.10517,-1.08073 -12.85976,-0.98733 -20.22088,-1.21456 -0.9374,-0.0357 -9.39219,-0.0343 -13.03428,-0.0161 0.0199,-7.17467 0.008,-145.80773 0.008,-205.38389 68.33504,0 136.67007,0 205.00512,0 0,1.2361 1.03039,30.06819 1.03039,31.30419 z"
                         id="path15009"
                         style="fill:#ffffff;fill-opacity:1;stroke:none" />
                    </g>
                    <g
                       transform="matrix(-0.4328112,0.2503486,-0.2503486,-0.4328112,436.95733,147.25492)"
                       id="g15011"
                       style="fill:#ffffff;fill-opacity:1;stroke:none">
                      <path
                         d="m 6.9527589,181.37067 c -0.37341,-2.0752 -1.856084,-11.39331 -3.039615,-14.59041 -3.02466684,-4.6548 2.045655,-10.25693 6.3435171,-7.92274 6.442562,3.00274 18.522619,10.10051 23.479391,11.36725 5.784438,2.62935 26.97037,7.39239 28.513311,7.58399 1.914378,0.4326 17.411819,2.2558 18.05328,2.1982 4.727035,0.4969 14.84196,1.0651 22.367747,0.9977 25.03369,0 50.06737,0 75.10106,0 0,-33.94193 0,-67.88384 0,-101.825755 -0.87882,-6.459601 -3.02378,-14.03928 -4.90172,-19.61473 -2.01532,-6.4068 -3.7558,-12.8611 -5.65796,-19.29326 -2.25326,-6.73243 -6.67713,-17.34641 -8.16098,-19.57791 -2.50607,-5.40818 -11.08229,-11.52555 -4.44113,-17.0682702 3.11197,-3.09454 23.36746,2.35574 25.1316,2.43562 7.10517,1.0807205 12.85976,0.9873205 20.22088,1.2145505 0.9374,0.03568 9.39219,0.03429 13.03428,0.01606 -0.0199,7.1746697 -0.008,145.8077347 -0.008,205.3838947 -68.33504,0 -136.670074,0 -205.0051151,0 0,-1.2361 -1.030396,-30.06819 -1.030396,-31.30419 z"
                         id="path15013"
                         style="fill:#ffffff;fill-opacity:1;stroke:none" />
                      <path
                         d="m 6.9527589,243.97905 c -0.37341,2.0752 -1.856084,11.39331 -3.039615,14.59041 -3.02466684,4.6548 2.045655,10.25693 6.3435171,7.92274 6.442562,-3.00274 18.522619,-10.10051 23.479391,-11.36725 5.784438,-2.62935 26.97037,-7.39239 28.513311,-7.58399 1.914378,-0.4326 17.411819,-2.2558 18.05328,-2.1982 4.727035,-0.4969 14.84196,-1.0651 22.367747,-0.9977 25.03369,0 50.06737,0 75.10106,0 0,33.94193 0,67.88384 0,101.82576 -0.87882,6.4596 -3.02378,14.03928 -4.90172,19.61473 -2.01532,6.40679 -3.7558,12.86109 -5.65796,19.29325 -2.25326,6.73244 -6.67713,17.34641 -8.16098,19.57791 -2.50607,5.40818 -11.08229,11.52555 -4.44113,17.06828 3.11197,3.09454 23.36746,-2.35574 25.1316,-2.43562 7.10517,-1.08073 12.85976,-0.98733 20.22088,-1.21456 0.9374,-0.0357 9.39219,-0.0343 13.03428,-0.0161 -0.0199,-7.17467 -0.008,-145.80773 -0.008,-205.38389 -68.33504,0 -136.670074,0 -205.0051151,0 0,1.2361 -1.030396,30.06819 -1.030396,31.30419 z"
                         id="path15015"
                         style="fill:#ffffff;fill-opacity:1;stroke:none" />
                      <path
                         d="m 419.04008,181.37067 c 0.37341,-2.0752 1.85609,-11.39331 3.03962,-14.59041 3.02466,-4.6548 -2.04566,-10.25693 -6.34352,-7.92274 -6.44256,3.00274 -18.52262,10.10051 -23.47939,11.36725 -5.78444,2.62935 -26.97037,7.39239 -28.51331,7.58399 -1.91438,0.4326 -17.41182,2.2558 -18.05328,2.1982 -4.72704,0.4969 -14.84196,1.0651 -22.36775,0.9977 -25.03369,0 -50.06737,0 -75.10106,0 0,-33.94193 0,-67.88384 0,-101.825755 0.87882,-6.459601 3.02378,-14.03928 4.90172,-19.61473 2.01532,-6.4068 3.7558,-12.8611 5.65796,-19.29326 2.25326,-6.73243 6.67713,-17.34641 8.16098,-19.57791 2.50607,-5.40818 11.08229,-11.52555 4.44113,-17.0682702 -3.11197,-3.09454 -23.36746,2.35574 -25.1316,2.43562 -7.10517,1.0807205 -12.85976,0.9873205 -20.22088,1.2145505 -0.9374,0.03568 -9.39219,0.03429 -13.03428,0.01606 0.0199,7.1746697 0.008,145.8077347 0.008,205.3838947 68.33504,0 136.67007,0 205.00512,0 0,-1.2361 1.03039,-30.06819 1.03039,-31.30419 z"
                         id="path15017"
                         style="fill:#ffffff;fill-opacity:1;stroke:none" />
                      <path
                         d="m 419.04008,243.97905 c 0.37341,2.0752 1.85609,11.39331 3.03962,14.59041 3.02466,4.6548 -2.04566,10.25693 -6.34352,7.92274 -6.44256,-3.00274 -18.52262,-10.10051 -23.47939,-11.36725 -5.78444,-2.62935 -26.97037,-7.39239 -28.51331,-7.58399 -1.91438,-0.4326 -17.41182,-2.2558 -18.05328,-2.1982 -4.72704,-0.4969 -14.84196,-1.0651 -22.36775,-0.9977 -25.03369,0 -50.06737,0 -75.10106,0 0,33.94193 0,67.88384 0,101.82576 0.87882,6.4596 3.02378,14.03928 4.90172,19.61473 2.01532,6.40679 3.7558,12.86109 5.65796,19.29325 2.25326,6.73244 6.67713,17.34641 8.16098,19.57791 2.50607,5.40818 11.08229,11.52555 4.44113,17.06828 -3.11197,3.09454 -23.36746,-2.35574 -25.1316,-2.43562 -7.10517,-1.08073 -12.85976,-0.98733 -20.22088,-1.21456 -0.9374,-0.0357 -9.39219,-0.0343 -13.03428,-0.0161 0.0199,-7.17467 0.008,-145.80773 0.008,-205.38389 68.33504,0 136.67007,0 205.00512,0 0,1.2361 1.03039,30.06819 1.03039,31.30419 z"
                         id="path15019"
                         style="fill:#ffffff;fill-opacity:1;stroke:none" />
                    </g>
                    <g
                       transform="matrix(-0.4328112,0.2503486,-0.2503486,-0.4328112,255.34572,462.40124)"
                       id="g15021"
                       style="fill:#ffffff;fill-opacity:1;stroke:none">
                      <path
                         d="m 6.9527589,181.37067 c -0.37341,-2.0752 -1.856084,-11.39331 -3.039615,-14.59041 -3.02466684,-4.6548 2.045655,-10.25693 6.3435171,-7.92274 6.442562,3.00274 18.522619,10.10051 23.479391,11.36725 5.784438,2.62935 26.97037,7.39239 28.513311,7.58399 1.914378,0.4326 17.411819,2.2558 18.05328,2.1982 4.727035,0.4969 14.84196,1.0651 22.367747,0.9977 25.03369,0 50.06737,0 75.10106,0 0,-33.94193 0,-67.88384 0,-101.825755 -0.87882,-6.459601 -3.02378,-14.03928 -4.90172,-19.61473 -2.01532,-6.4068 -3.7558,-12.8611 -5.65796,-19.29326 -2.25326,-6.73243 -6.67713,-17.34641 -8.16098,-19.57791 -2.50607,-5.40818 -11.08229,-11.52555 -4.44113,-17.0682702 3.11197,-3.09454 23.36746,2.35574 25.1316,2.43562 7.10517,1.0807205 12.85976,0.9873205 20.22088,1.2145505 0.9374,0.03568 9.39219,0.03429 13.03428,0.01606 -0.0199,7.1746697 -0.008,145.8077347 -0.008,205.3838947 -68.33504,0 -136.670074,0 -205.0051151,0 0,-1.2361 -1.030396,-30.06819 -1.030396,-31.30419 z"
                         id="path15023"
                         style="fill:#ffffff;fill-opacity:1;stroke:none" />
                      <path
                         d="m 6.9527589,243.97905 c -0.37341,2.0752 -1.856084,11.39331 -3.039615,14.59041 -3.02466684,4.6548 2.045655,10.25693 6.3435171,7.92274 6.442562,-3.00274 18.522619,-10.10051 23.479391,-11.36725 5.784438,-2.62935 26.97037,-7.39239 28.513311,-7.58399 1.914378,-0.4326 17.411819,-2.2558 18.05328,-2.1982 4.727035,-0.4969 14.84196,-1.0651 22.367747,-0.9977 25.03369,0 50.06737,0 75.10106,0 0,33.94193 0,67.88384 0,101.82576 -0.87882,6.4596 -3.02378,14.03928 -4.90172,19.61473 -2.01532,6.40679 -3.7558,12.86109 -5.65796,19.29325 -2.25326,6.73244 -6.67713,17.34641 -8.16098,19.57791 -2.50607,5.40818 -11.08229,11.52555 -4.44113,17.06828 3.11197,3.09454 23.36746,-2.35574 25.1316,-2.43562 7.10517,-1.08073 12.85976,-0.98733 20.22088,-1.21456 0.9374,-0.0357 9.39219,-0.0343 13.03428,-0.0161 -0.0199,-7.17467 -0.008,-145.80773 -0.008,-205.38389 -68.33504,0 -136.670074,0 -205.0051151,0 0,1.2361 -1.030396,30.06819 -1.030396,31.30419 z"
                         id="path15025"
                         style="fill:#ffffff;fill-opacity:1;stroke:none" />
                      <path
                         d="m 419.04008,181.37067 c 0.37341,-2.0752 1.85609,-11.39331 3.03962,-14.59041 3.02466,-4.6548 -2.04566,-10.25693 -6.34352,-7.92274 -6.44256,3.00274 -18.52262,10.10051 -23.47939,11.36725 -5.78444,2.62935 -26.97037,7.39239 -28.51331,7.58399 -1.91438,0.4326 -17.41182,2.2558 -18.05328,2.1982 -4.72704,0.4969 -14.84196,1.0651 -22.36775,0.9977 -25.03369,0 -50.06737,0 -75.10106,0 0,-33.94193 0,-67.88384 0,-101.825755 0.87882,-6.459601 3.02378,-14.03928 4.90172,-19.61473 2.01532,-6.4068 3.7558,-12.8611 5.65796,-19.29326 2.25326,-6.73243 6.67713,-17.34641 8.16098,-19.57791 2.50607,-5.40818 11.08229,-11.52555 4.44113,-17.0682702 -3.11197,-3.09454 -23.36746,2.35574 -25.1316,2.43562 -7.10517,1.0807205 -12.85976,0.9873205 -20.22088,1.2145505 -0.9374,0.03568 -9.39219,0.03429 -13.03428,0.01606 0.0199,7.1746697 0.008,145.8077347 0.008,205.3838947 68.33504,0 136.67007,0 205.00512,0 0,-1.2361 1.03039,-30.06819 1.03039,-31.30419 z"
                         id="path15027"
                         style="fill:#ffffff;fill-opacity:1;stroke:none" />
                      <path
                         d="m 419.04008,243.97905 c 0.37341,2.0752 1.85609,11.39331 3.03962,14.59041 3.02466,4.6548 -2.04566,10.25693 -6.34352,7.92274 -6.44256,-3.00274 -18.52262,-10.10051 -23.47939,-11.36725 -5.78444,-2.62935 -26.97037,-7.39239 -28.51331,-7.58399 -1.91438,-0.4326 -17.41182,-2.2558 -18.05328,-2.1982 -4.72704,-0.4969 -14.84196,-1.0651 -22.36775,-0.9977 -25.03369,0 -50.06737,0 -75.10106,0 0,33.94193 0,67.88384 0,101.82576 0.87882,6.4596 3.02378,14.03928 4.90172,19.61473 2.01532,6.40679 3.7558,12.86109 5.65796,19.29325 2.25326,6.73244 6.67713,17.34641 8.16098,19.57791 2.50607,5.40818 11.08229,11.52555 4.44113,17.06828 -3.11197,3.09454 -23.36746,-2.35574 -25.1316,-2.43562 -7.10517,-1.08073 -12.85976,-0.98733 -20.22088,-1.21456 -0.9374,-0.0357 -9.39219,-0.0343 -13.03428,-0.0161 0.0199,-7.17467 0.008,-145.80773 0.008,-205.38389 68.33504,0 136.67007,0 205.00512,0 0,1.2361 1.03039,30.06819 1.03039,31.30419 z"
                         id="path15029"
                         style="fill:#ffffff;fill-opacity:1;stroke:none" />
                    </g>
                    <g
                       transform="matrix(-4.0261966e-4,-0.4999998,0.4999998,-4.0261966e-4,94.469818,372.68713)"
                       id="g15031"
                       style="fill:#ffffff;fill-opacity:1;stroke:none">
                      <path
                         d="m 6.9527589,181.37067 c -0.37341,-2.0752 -1.856084,-11.39331 -3.039615,-14.59041 -3.02466684,-4.6548 2.045655,-10.25693 6.3435171,-7.92274 6.442562,3.00274 18.522619,10.10051 23.479391,11.36725 5.784438,2.62935 26.97037,7.39239 28.513311,7.58399 1.914378,0.4326 17.411819,2.2558 18.05328,2.1982 4.727035,0.4969 14.84196,1.0651 22.367747,0.9977 25.03369,0 50.06737,0 75.10106,0 0,-33.94193 0,-67.88384 0,-101.825755 -0.87882,-6.459601 -3.02378,-14.03928 -4.90172,-19.61473 -2.01532,-6.4068 -3.7558,-12.8611 -5.65796,-19.29326 -2.25326,-6.73243 -6.67713,-17.34641 -8.16098,-19.57791 -2.50607,-5.40818 -11.08229,-11.52555 -4.44113,-17.0682702 3.11197,-3.09454 23.36746,2.35574 25.1316,2.43562 7.10517,1.0807205 12.85976,0.9873205 20.22088,1.2145505 0.9374,0.03568 9.39219,0.03429 13.03428,0.01606 -0.0199,7.1746697 -0.008,145.8077347 -0.008,205.3838947 -68.33504,0 -136.670074,0 -205.0051151,0 0,-1.2361 -1.030396,-30.06819 -1.030396,-31.30419 z"
                         id="path15033"
                         style="fill:#ffffff;fill-opacity:1;stroke:none" />
                      <path
                         d="m 6.9527589,243.97905 c -0.37341,2.0752 -1.856084,11.39331 -3.039615,14.59041 -3.02466684,4.6548 2.045655,10.25693 6.3435171,7.92274 6.442562,-3.00274 18.522619,-10.10051 23.479391,-11.36725 5.784438,-2.62935 26.97037,-7.39239 28.513311,-7.58399 1.914378,-0.4326 17.411819,-2.2558 18.05328,-2.1982 4.727035,-0.4969 14.84196,-1.0651 22.367747,-0.9977 25.03369,0 50.06737,0 75.10106,0 0,33.94193 0,67.88384 0,101.82576 -0.87882,6.4596 -3.02378,14.03928 -4.90172,19.61473 -2.01532,6.40679 -3.7558,12.86109 -5.65796,19.29325 -2.25326,6.73244 -6.67713,17.34641 -8.16098,19.57791 -2.50607,5.40818 -11.08229,11.52555 -4.44113,17.06828 3.11197,3.09454 23.36746,-2.35574 25.1316,-2.43562 7.10517,-1.08073 12.85976,-0.98733 20.22088,-1.21456 0.9374,-0.0357 9.39219,-0.0343 13.03428,-0.0161 -0.0199,-7.17467 -0.008,-145.80773 -0.008,-205.38389 -68.33504,0 -136.670074,0 -205.0051151,0 0,1.2361 -1.030396,30.06819 -1.030396,31.30419 z"
                         id="path15035"
                         style="fill:#ffffff;fill-opacity:1;stroke:none" />
                      <path
                         d="m 419.04008,181.37067 c 0.37341,-2.0752 1.85609,-11.39331 3.03962,-14.59041 3.02466,-4.6548 -2.04566,-10.25693 -6.34352,-7.92274 -6.44256,3.00274 -18.52262,10.10051 -23.47939,11.36725 -5.78444,2.62935 -26.97037,7.39239 -28.51331,7.58399 -1.91438,0.4326 -17.41182,2.2558 -18.05328,2.1982 -4.72704,0.4969 -14.84196,1.0651 -22.36775,0.9977 -25.03369,0 -50.06737,0 -75.10106,0 0,-33.94193 0,-67.88384 0,-101.825755 0.87882,-6.459601 3.02378,-14.03928 4.90172,-19.61473 2.01532,-6.4068 3.7558,-12.8611 5.65796,-19.29326 2.25326,-6.73243 6.67713,-17.34641 8.16098,-19.57791 2.50607,-5.40818 11.08229,-11.52555 4.44113,-17.0682702 -3.11197,-3.09454 -23.36746,2.35574 -25.1316,2.43562 -7.10517,1.0807205 -12.85976,0.9873205 -20.22088,1.2145505 -0.9374,0.03568 -9.39219,0.03429 -13.03428,0.01606 0.0199,7.1746697 0.008,145.8077347 0.008,205.3838947 68.33504,0 136.67007,0 205.00512,0 0,-1.2361 1.03039,-30.06819 1.03039,-31.30419 z"
                         id="path15037"
                         style="fill:#ffffff;fill-opacity:1;stroke:none" />
                      <path
                         d="m 419.04008,243.97905 c 0.37341,2.0752 1.85609,11.39331 3.03962,14.59041 3.02466,4.6548 -2.04566,10.25693 -6.34352,7.92274 -6.44256,-3.00274 -18.52262,-10.10051 -23.47939,-11.36725 -5.78444,-2.62935 -26.97037,-7.39239 -28.51331,-7.58399 -1.91438,-0.4326 -17.41182,-2.2558 -18.05328,-2.1982 -4.72704,-0.4969 -14.84196,-1.0651 -22.36775,-0.9977 -25.03369,0 -50.06737,0 -75.10106,0 0,33.94193 0,67.88384 0,101.82576 0.87882,6.4596 3.02378,14.03928 4.90172,19.61473 2.01532,6.40679 3.7558,12.86109 5.65796,19.29325 2.25326,6.73244 6.67713,17.34641 8.16098,19.57791 2.50607,5.40818 11.08229,11.52555 4.44113,17.06828 -3.11197,3.09454 -23.36746,-2.35574 -25.1316,-2.43562 -7.10517,-1.08073 -12.85976,-0.98733 -20.22088,-1.21456 -0.9374,-0.0357 -9.39219,-0.0343 -13.03428,-0.0161 0.0199,-7.17467 0.008,-145.80773 0.008,-205.38389 68.33504,0 136.67007,0 205.00512,0 0,1.2361 1.03039,30.06819 1.03039,31.30419 z"
                         id="path15039"
                         style="fill:#ffffff;fill-opacity:1;stroke:none" />
                    </g>
                    <g
                       transform="matrix(0.4332138,0.2496512,-0.2496512,0.4332138,252.60243,278.22155)"
                       id="g15041"
                       style="fill:#ffffff;fill-opacity:1;stroke:none">
                      <path
                         d="m 6.9527589,181.37067 c -0.37341,-2.0752 -1.856084,-11.39331 -3.039615,-14.59041 -3.02466684,-4.6548 2.045655,-10.25693 6.3435171,-7.92274 6.442562,3.00274 18.522619,10.10051 23.479391,11.36725 5.784438,2.62935 26.97037,7.39239 28.513311,7.58399 1.914378,0.4326 17.411819,2.2558 18.05328,2.1982 4.727035,0.4969 14.84196,1.0651 22.367747,0.9977 25.03369,0 50.06737,0 75.10106,0 0,-33.94193 0,-67.88384 0,-101.825755 -0.87882,-6.459601 -3.02378,-14.03928 -4.90172,-19.61473 -2.01532,-6.4068 -3.7558,-12.8611 -5.65796,-19.29326 -2.25326,-6.73243 -6.67713,-17.34641 -8.16098,-19.57791 -2.50607,-5.40818 -11.08229,-11.52555 -4.44113,-17.0682702 3.11197,-3.09454 23.36746,2.35574 25.1316,2.43562 7.10517,1.0807205 12.85976,0.9873205 20.22088,1.2145505 0.9374,0.03568 9.39219,0.03429 13.03428,0.01606 -0.0199,7.1746697 -0.008,145.8077347 -0.008,205.3838947 -68.33504,0 -136.670074,0 -205.0051151,0 0,-1.2361 -1.030396,-30.06819 -1.030396,-31.30419 z"
                         id="path15043"
                         style="fill:#ffffff;fill-opacity:1;stroke:none" />
                      <path
                         d="m 6.9527589,243.97905 c -0.37341,2.0752 -1.856084,11.39331 -3.039615,14.59041 -3.02466684,4.6548 2.045655,10.25693 6.3435171,7.92274 6.442562,-3.00274 18.522619,-10.10051 23.479391,-11.36725 5.784438,-2.62935 26.97037,-7.39239 28.513311,-7.58399 1.914378,-0.4326 17.411819,-2.2558 18.05328,-2.1982 4.727035,-0.4969 14.84196,-1.0651 22.367747,-0.9977 25.03369,0 50.06737,0 75.10106,0 0,33.94193 0,67.88384 0,101.82576 -0.87882,6.4596 -3.02378,14.03928 -4.90172,19.61473 -2.01532,6.40679 -3.7558,12.86109 -5.65796,19.29325 -2.25326,6.73244 -6.67713,17.34641 -8.16098,19.57791 -2.50607,5.40818 -11.08229,11.52555 -4.44113,17.06828 3.11197,3.09454 23.36746,-2.35574 25.1316,-2.43562 7.10517,-1.08073 12.85976,-0.98733 20.22088,-1.21456 0.9374,-0.0357 9.39219,-0.0343 13.03428,-0.0161 -0.0199,-7.17467 -0.008,-145.80773 -0.008,-205.38389 -68.33504,0 -136.670074,0 -205.0051151,0 0,1.2361 -1.030396,30.06819 -1.030396,31.30419 z"
                         id="path15045"
                         style="fill:#ffffff;fill-opacity:1;stroke:none" />
                      <path
                         d="m 419.04008,181.37067 c 0.37341,-2.0752 1.85609,-11.39331 3.03962,-14.59041 3.02466,-4.6548 -2.04566,-10.25693 -6.34352,-7.92274 -6.44256,3.00274 -18.52262,10.10051 -23.47939,11.36725 -5.78444,2.62935 -26.97037,7.39239 -28.51331,7.58399 -1.91438,0.4326 -17.41182,2.2558 -18.05328,2.1982 -4.72704,0.4969 -14.84196,1.0651 -22.36775,0.9977 -25.03369,0 -50.06737,0 -75.10106,0 0,-33.94193 0,-67.88384 0,-101.825755 0.87882,-6.459601 3.02378,-14.03928 4.90172,-19.61473 2.01532,-6.4068 3.7558,-12.8611 5.65796,-19.29326 2.25326,-6.73243 6.67713,-17.34641 8.16098,-19.57791 2.50607,-5.40818 11.08229,-11.52555 4.44113,-17.0682702 -3.11197,-3.09454 -23.36746,2.35574 -25.1316,2.43562 -7.10517,1.0807205 -12.85976,0.9873205 -20.22088,1.2145505 -0.9374,0.03568 -9.39219,0.03429 -13.03428,0.01606 0.0199,7.1746697 0.008,145.8077347 0.008,205.3838947 68.33504,0 136.67007,0 205.00512,0 0,-1.2361 1.03039,-30.06819 1.03039,-31.30419 z"
                         id="path15047"
                         style="fill:#ffffff;fill-opacity:1;stroke:none" />
                      <path
                         d="m 419.04008,243.97905 c 0.37341,2.0752 1.85609,11.39331 3.03962,14.59041 3.02466,4.6548 -2.04566,10.25693 -6.34352,7.92274 -6.44256,-3.00274 -18.52262,-10.10051 -23.47939,-11.36725 -5.78444,-2.62935 -26.97037,-7.39239 -28.51331,-7.58399 -1.91438,-0.4326 -17.41182,-2.2558 -18.05328,-2.1982 -4.72704,-0.4969 -14.84196,-1.0651 -22.36775,-0.9977 -25.03369,0 -50.06737,0 -75.10106,0 0,33.94193 0,67.88384 0,101.82576 0.87882,6.4596 3.02378,14.03928 4.90172,19.61473 2.01532,6.40679 3.7558,12.86109 5.65796,19.29325 2.25326,6.73244 6.67713,17.34641 8.16098,19.57791 2.50607,5.40818 11.08229,11.52555 4.44113,17.06828 -3.11197,3.09454 -23.36746,-2.35574 -25.1316,-2.43562 -7.10517,-1.08073 -12.85976,-0.98733 -20.22088,-1.21456 -0.9374,-0.0357 -9.39219,-0.0343 -13.03428,-0.0161 0.0199,-7.17467 0.008,-145.80773 0.008,-205.38389 68.33504,0 136.67007,0 205.00512,0 0,1.2361 1.03039,30.06819 1.03039,31.30419 z"
                         id="path15049"
                         style="fill:#ffffff;fill-opacity:1;stroke:none" />
                    </g>
                  </g>
                  <use
                     transform="translate(0,26.347469)"
                     id="use16905"
                     x="0"
                     y="0"
                     width="208"
                     height="319"
                     xlink:href="#g14999" />
                  <use
                     transform="translate(0,52.694938)"
                     id="use16907"
                     x="0"
                     y="0"
                     width="208"
                     height="319"
                     xlink:href="#g14999" />
                  <use
                     transform="translate(0,79.042407)"
                     id="use16909"
                     x="0"
                     y="0"
                     width="208"
                     height="319"
                     xlink:href="#g14999" />
                  <use
                     transform="translate(0,105.38988)"
                     id="use16911"
                     x="0"
                     y="0"
                     width="208"
                     height="319"
                     xlink:href="#g14999" />
                  <use
                     transform="translate(0,131.73735)"
                     id="use16913"
                     x="0"
                     y="0"
                     width="208"
                     height="319"
                     xlink:href="#g14999" />
                  <use
                     transform="translate(18.6129,0)"
                     id="use16915"
                     x="0"
                     y="0"
                     width="208"
                     height="319"
                     xlink:href="#g14999" />
                  <use
                     transform="translate(18.6129,26.347469)"
                     id="use16917"
                     x="0"
                     y="0"
                     width="208"
                     height="319"
                     xlink:href="#g14999" />
                  <use
                     transform="translate(18.6129,52.694938)"
                     id="use16919"
                     x="0"
                     y="0"
                     width="208"
                     height="319"
                     xlink:href="#g14999" />
                  <use
                     transform="translate(18.6129,79.042407)"
                     id="use16921"
                     x="0"
                     y="0"
                     width="208"
                     height="319"
                     xlink:href="#g14999" />
                  <use
                     transform="translate(18.6129,105.38988)"
                     id="use16923"
                     x="0"
                     y="0"
                     width="208"
                     height="319"
                     xlink:href="#g14999" />
                  <use
                     transform="translate(18.6129,131.73735)"
                     id="use16925"
                     x="0"
                     y="0"
                     width="208"
                     height="319"
                     xlink:href="#g14999" />
                  <use
                     transform="translate(37.2258,0)"
                     id="use16927"
                     x="0"
                     y="0"
                     width="208"
                     height="319"
                     xlink:href="#g14999" />
                  <use
                     transform="translate(37.2258,26.347469)"
                     id="use16929"
                     x="0"
                     y="0"
                     width="208"
                     height="319"
                     xlink:href="#g14999" />
                  <use
                     transform="translate(37.2258,52.694938)"
                     id="use16931"
                     x="0"
                     y="0"
                     width="208"
                     height="319"
                     xlink:href="#g14999" />
                  <use
                     transform="translate(37.2258,79.042407)"
                     id="use16933"
                     x="0"
                     y="0"
                     width="208"
                     height="319"
                     xlink:href="#g14999" />
                  <use
                     transform="translate(37.2258,105.38988)"
                     id="use16935"
                     x="0"
                     y="0"
                     width="208"
                     height="319"
                     xlink:href="#g14999" />
                  <use
                     transform="translate(37.2258,131.73735)"
                     id="use16937"
                     x="0"
                     y="0"
                     width="208"
                     height="319"
                     xlink:href="#g14999" />
                  <use
                     transform="translate(55.8387,0)"
                     id="use16939"
                     x="0"
                     y="0"
                     width="208"
                     height="319"
                     xlink:href="#g14999" />
                  <use
                     transform="translate(55.8387,26.347469)"
                     id="use16941"
                     x="0"
                     y="0"
                     width="208"
                     height="319"
                     xlink:href="#g14999" />
                  <use
                     transform="translate(55.8387,52.694938)"
                     id="use16943"
                     x="0"
                     y="0"
                     width="208"
                     height="319"
                     xlink:href="#g14999" />
                  <use
                     transform="translate(55.8387,79.042407)"
                     id="use16945"
                     x="0"
                     y="0"
                     width="208"
                     height="319"
                     xlink:href="#g14999" />
                  <use
                     transform="translate(55.8387,105.38988)"
                     id="use16947"
                     x="0"
                     y="0"
                     width="208"
                     height="319"
                     xlink:href="#g14999" />
                  <use
                     transform="translate(55.8387,131.73735)"
                     id="use16949"
                     x="0"
                     y="0"
                     width="208"
                     height="319"
                     xlink:href="#g14999" />
                  <use
                     transform="translate(74.4516,0)"
                     id="use16951"
                     x="0"
                     y="0"
                     width="208"
                     height="319"
                     xlink:href="#g14999" />
                  <use
                     transform="translate(74.4516,26.347469)"
                     id="use16953"
                     x="0"
                     y="0"
                     width="208"
                     height="319"
                     xlink:href="#g14999" />
                  <use
                     transform="translate(74.4516,52.694938)"
                     id="use16955"
                     x="0"
                     y="0"
                     width="208"
                     height="319"
                     xlink:href="#g14999" />
                  <use
                     transform="translate(74.4516,79.042407)"
                     id="use16957"
                     x="0"
                     y="0"
                     width="208"
                     height="319"
                     xlink:href="#g14999" />
                  <use
                     transform="translate(74.4516,105.38988)"
                     id="use16959"
                     x="0"
                     y="0"
                     width="208"
                     height="319"
                     xlink:href="#g14999" />
                  <use
                     transform="translate(74.4516,131.73735)"
                     id="use16961"
                     x="0"
                     y="0"
                     width="208"
                     height="319"
                     xlink:href="#g14999" />
                </g>
                <path
                   d="m 108.37128,156.8043 c 0.75131,-0.20864 2.12617,-2.19233 2.95059,-2.71604 0.5835,-0.37064 1.12719,-0.6726 1.36729,-0.75931 0.22365,-0.0807 1.30961,-0.35121 1.7359,-0.33099 0.18964,0.009 0.35931,0.006 0.3773,-0.007 0.0193,-0.0139 0.004,-0.0582 -0.0384,-0.10859 -0.0768,-0.0921 -0.2922,-0.71374 -0.28642,-0.82645 0.008,-0.13301 0.1479,-0.4469 0.36219,-0.80618 0.28249,-0.47332 0.85005,-1.16832 1.15032,-1.40845 0.27503,-0.21992 0.5452,-0.38677 0.78244,-0.48325 0.17918,-0.0728 0.94123,-0.32631 1.1327,-0.37672 0.0598,-0.0157 0.0488,-0.0275 -0.0959,-0.0961 -0.23881,-0.11444 -0.67617,-0.58801 -0.76121,-0.82448 -0.0776,-0.21551 -0.0451,-0.54898 0.0916,-0.94274 0.21148,-0.60892 0.43425,-0.93943 0.82379,-1.22223 0.12159,-0.0882 0.26805,-0.20404 0.32546,-0.25726 0.1166,-0.10799 0.43141,-0.26534 0.6432,-0.32126 0.0764,-0.0199 0.14359,-0.0425 0.14931,-0.0493 0.007,-0.008 -0.0405,-0.0342 -0.10397,-0.0581 -0.15745,-0.0656 -0.53022,-0.51429 -0.60378,-0.72655 -0.16725,-0.48206 -0.0179,-1.28901 0.34712,-1.8706 0.14184,-0.22616 0.6589,-0.7762 0.87916,-0.93516 0.30052,-0.21686 0.30037,-0.21583 0.0507,-0.32257 -0.119,-0.0507 -0.28176,-0.15744 -0.36514,-0.23084 -0.13243,-0.12315 -0.1529,-0.15922 -0.18473,-0.32715 -0.0763,-0.40496 0.004,-1.31871 0.17073,-1.9475 0.0853,-0.32128 -0.5272,-2.87157 -0.5272,-2.87157 0,0 -2.49299,0.81488 -2.72194,1.05585 -0.44805,0.47168 -1.18431,1.01875 -1.56919,1.16599 -0.15971,0.0608 -0.20116,0.0624 -0.37543,0.0142 -0.10622,-0.0324 -0.28237,-0.11529 -0.38797,-0.18999 -0.22171,-0.15667 -0.22092,-0.15737 -0.24812,0.21227 -0.02,0.27089 -0.21747,0.99952 -0.33574,1.23883 -0.30421,0.61533 -0.91304,1.16575 -1.41125,1.27592 -0.21934,0.0486 -0.79678,-0.0338 -0.93521,-0.13346 -0.0538,-0.0415 -0.10087,-0.0677 -0.10395,-0.0581 -0.003,0.009 0.0132,0.0776 0.0361,0.15297 0.0635,0.2097 0.0943,0.56025 0.0634,0.71615 -0.0153,0.0769 -0.0371,0.26223 -0.0486,0.41202 -0.0367,0.47997 -0.20147,0.84291 -0.60924,1.34212 -0.2637,0.32283 -0.53071,0.52521 -0.75492,0.57207 -0.24596,0.0515 -0.87848,-0.0728 -1.10111,-0.21624 -0.13431,-0.0874 -0.14995,-0.0907 -0.13205,-0.0313 0.0575,0.18948 0.24085,0.97134 0.27274,1.16213 0.0422,0.25262 0.0417,0.57013 -0.002,0.91963 -0.0472,0.38158 -0.34165,1.22918 -0.59673,1.71782 -0.19369,0.37077 -0.38712,0.65541 -0.49681,0.73096 -0.0929,0.064 -0.73539,0.20629 -0.85397,0.18916 -0.0651,-0.01 -0.11077,2e-4 -0.11253,0.0241 -7.6e-4,0.0223 0.0843,0.16843 0.19113,0.32537 0.24063,0.35245 0.57937,1.4191 0.62782,1.65188 0.052,0.24993 0.0798,0.87126 0.0698,1.56242 -0.0143,0.9766 -0.98298,3.18713 -0.76696,3.93634 0.13893,0.48176 -0.5241,1.89544 -0.0424,2.34055 0.63149,0.17694 1.48805,-1.12862 1.97116,-1.26275 z"
                   id="use15304"
                   style="fill:#28284e;fill-opacity:1;stroke:#ffffff;stroke-width:0.96903104;stroke-linecap:square;stroke-linejoin:miter;stroke-miterlimit:4;stroke-opacity:1;stroke-dasharray:none" />
                <path
                   d="m 108.49887,158.23169 c 0,0.66236 -0.55381,1.19931 -1.23696,1.19931 l -2.47391,0 0,-2.39862 c 0,-0.66236 0.55381,-1.19931 1.23696,-1.19931 0.68315,0 1.23695,0.53695 1.23695,1.19931 0.68315,0 1.23696,0.53695 1.23696,1.19931 z"
                   id="path14506"
                   style="fill:#28284e;fill-opacity:1;stroke:#ffffff;stroke-width:1;stroke-miterlimit:4;stroke-opacity:1;stroke-dasharray:none" />
                <g
                   transform="translate(0.189928,1.00043)"
                   id="g15298">
                  <use
                     transform="matrix(0,-1,1,0,-46.524128,263.21857)"
                     id="use14526"
                     x="0"
                     y="0"
                     width="208"
                     height="319"
                     xlink:href="#path14506" />
                  <use
                     transform="translate(8.0920479,-1.00043)"
                     id="use14528"
                     style="stroke-width:1;stroke-miterlimit:4;stroke-dasharray:none"
                     x="0"
                     y="0"
                     width="208"
                     height="319"
                     xlink:href="#path14506" />
                </g>
                <use
                   transform="matrix(0,1,-1,0,264.21905,38.026161)"
                   id="use15302"
                   x="0"
                   y="0"
                   width="208"
                   height="319"
                   xlink:href="#g15298" />
                <use
                   transform="translate(12.719947,-22.471907)"
                   id="use15311"
                   x="0"
                   y="0"
                   width="208"
                   height="319"
                   xlink:href="#use15304" />
                <use
                   transform="translate(25.483006,-44.837814)"
                   id="use15313"
                   x="0"
                   y="0"
                   width="208"
                   height="319"
                   xlink:href="#use15304" />
                <use
                   transform="translate(38.034065,-66.991722)"
                   id="use15315"
                   x="0"
                   y="0"
                   width="208"
                   height="319"
                   xlink:href="#use15304" />
                <use
                   transform="translate(50.685796,-89.313722)"
                   id="use15317"
                   x="0"
                   y="0"
                   width="208"
                   height="319"
                   xlink:href="#use15304" />
                <use
                   transform="translate(62.924184,-111.08754)"
                   id="use15319"
                   x="0"
                   y="0"
                   width="208"
                   height="319"
                   xlink:href="#use15304" />
                <g
                   transform="translate(0.84799648,-1.8019925)"
                   id="g15331">
                  <use
                     transform="translate(67.743108,-132.73114)"
                     id="use15327"
                     x="0"
                     y="0"
                     width="208"
                     height="319"
                     xlink:href="#g15298" />
                  <use
                     transform="matrix(1,0,0,-1,67.743108,186.13113)"
                     id="use15329"
                     x="0"
                     y="0"
                     width="208"
                     height="319"
                     xlink:href="#g15298" />
                </g>
                <use
                   transform="translate(0,-82.820759)"
                   id="use15335"
                   x="0"
                   y="0"
                   width="208"
                   height="319"
                   xlink:href="#use15302" />
                <use
                   transform="translate(0,-74.538683)"
                   id="use15337"
                   x="0"
                   y="0"
                   width="208"
                   height="319"
                   xlink:href="#use15302" />
                <use
                   transform="translate(0,-66.256607)"
                   id="use15339"
                   x="0"
                   y="0"
                   width="208"
                   height="319"
                   xlink:href="#use15302" />
                <use
                   transform="translate(0,-57.974531)"
                   id="use15341"
                   x="0"
                   y="0"
                   width="208"
                   height="319"
                   xlink:href="#use15302" />
                <use
                   transform="translate(0,-49.692456)"
                   id="use15343"
                   x="0"
                   y="0"
                   width="208"
                   height="319"
                   xlink:href="#use15302" />
                <use
                   transform="translate(0,-41.41038)"
                   id="use15345"
                   x="0"
                   y="0"
                   width="208"
                   height="319"
                   xlink:href="#use15302" />
                <use
                   transform="translate(0,-33.128304)"
                   id="use15347"
                   x="0"
                   y="0"
                   width="208"
                   height="319"
                   xlink:href="#use15302" />
                <use
                   transform="translate(0,-24.846228)"
                   id="use15349"
                   x="0"
                   y="0"
                   width="208"
                   height="319"
                   xlink:href="#use15302" />
                <use
                   transform="translate(0,-16.564152)"
                   id="use15351"
                   x="0"
                   y="0"
                   width="208"
                   height="319"
                   xlink:href="#use15302" />
                <use
                   transform="translate(0,-8.282076)"
                   id="use15353"
                   x="0"
                   y="0"
                   width="208"
                   height="319"
                   xlink:href="#use15302" />
                <use
                   transform="translate(0,-91.102735)"
                   id="use15355"
                   x="0"
                   y="0"
                   width="208"
                   height="319"
                   xlink:href="#use15302" />
                <use
                   transform="translate(0,-99.384711)"
                   id="use15357"
                   x="0"
                   y="0"
                   width="208"
                   height="319"
                   xlink:href="#use15302" />
                <use
                   transform="translate(8.2819759,0)"
                   id="use15363"
                   x="0"
                   y="0"
                   width="208"
                   height="319"
                   xlink:href="#g15298" />
                <use
                   transform="translate(16.563952,0)"
                   id="use15365"
                   x="0"
                   y="0"
                   width="208"
                   height="319"
                   xlink:href="#g15298" />
                <use
                   transform="translate(24.845928,0)"
                   id="use15367"
                   x="0"
                   y="0"
                   width="208"
                   height="319"
                   xlink:href="#g15298" />
                <use
                   transform="translate(33.127904,0)"
                   id="use15369"
                   x="0"
                   y="0"
                   width="208"
                   height="319"
                   xlink:href="#g15298" />
                <use
                   transform="translate(41.40988,0)"
                   id="use15371"
                   x="0"
                   y="0"
                   width="208"
                   height="319"
                   xlink:href="#g15298" />
                <use
                   transform="translate(49.691856,0)"
                   id="use15373"
                   x="0"
                   y="0"
                   width="208"
                   height="319"
                   xlink:href="#g15298" />
                <use
                   transform="matrix(0,-1,-1.0000064,0,208.06475,264.164)"
                   id="use15377"
                   style="fill:#28284e;fill-opacity:1"
                   x="0"
                   y="0"
                   width="208"
                   height="319"
                   xlink:href="#path4813" />
                <use
                   transform="translate(0,-107.66669)"
                   id="use15379"
                   x="0"
                   y="0"
                   width="208"
                   height="319"
                   xlink:href="#use15302" />
                <path
                   d="m 104.25142,24.217193 0.61897,-1.825879 c 0,0 0.78491,1.327871 0.86721,1.649941 0.16098,0.630321 0.53689,1.467091 0.80101,1.783432 0.10969,0.131379 0.14515,0.152939 0.32081,0.195489 0.1086,0.02593 0.30274,0.03669 0.43138,0.02303 0.26994,-0.0286 0.26957,-0.02955 0.11302,0.306339 -0.11473,0.246215 -0.29776,0.978545 -0.31126,1.245175 -0.0346,0.685547 0.22838,1.463032 0.60954,1.802336 0.16776,0.149339 0.71203,0.359105 0.8815,0.339685 0.0671,-0.0078 0.12109,-0.0068 0.11909,0.002 -0.002,0.0088 -0.0494,0.06094 -0.10631,0.115789 -0.1576,0.152179 -0.35565,0.44306 -0.40475,0.594233 -0.0242,0.07451 -0.0956,0.247025 -0.15861,0.383375 -0.2021,0.436834 -0.23532,0.834008 -0.1229,1.468741 0.0727,0.410514 0.2071,0.717419 0.37993,0.867714 0.18959,0.164875 0.80238,0.365021 1.0667,0.348331 0.15985,-0.01005 0.17505,-0.0058 0.13055,0.03728 -0.14254,0.137433 -0.6841,0.730457 -0.80501,0.881465 -0.16001,0.199889 -0.31447,0.477381 -0.44728,0.803531 -0.14498,0.356079 -0.30149,1.239623 -0.31709,1.790644 -0.0118,0.418107 0.0181,0.760963 0.0771,0.880411 0.0499,0.101209 0.54133,0.538902 0.65318,0.581742 0.0614,0.02352 0.0964,0.05455 0.0864,0.07651 -0.009,0.02032 -0.15579,0.106136 -0.32558,0.190746 -0.38203,0.190316 -1.19807,0.956159 -1.3539,1.13577 -0.16731,0.192814 -0.49462,0.721605 -0.82317,1.329823 -0.46418,0.859313 -0.80755,3.261688 -1.36161,3.810319 l -0.9205,-2.060498"
                   id="path4813"
                   style="fill:#28284e;fill-opacity:1;fill-rule:nonzero;stroke:#ffffff;stroke-width:1;stroke-linecap:square;stroke-linejoin:miter;stroke-miterlimit:4;stroke-opacity:1;stroke-dasharray:none" />
              </g>
              <use
                 transform="matrix(-1,0,0,1,209.62901,1.7445449e-6)"
                 id="use17176"
                 x="0"
                 y="0"
                 width="208"
                 height="319"
                 xlink:href="#g17083" />
            </g>
            <use
               transform="matrix(0.99999997,0,0,-1,3.8985753e-7,318.82833)"
               id="use17273"
               x="0"
               y="0"
               width="208"
               height="319"
               xlink:href="#g17178" />
          </g>
        </g>
      </g>
    </g>
  </g>
</svg>
